<svg width="622" height="622" viewBox="0 0 622 622" fill="none" xmlns="http://www.w3.org/2000/svg">
<path d="M311 556.03C337.305 556.03 362.643 551.885 386.394 544.212V612.799C362.255 618.809 337 622 311 622C139.239 622 0 482.761 0 311C0 139.239 139.239 0 311 0C482.761 0 622 139.239 622 311V622H556.03L555.32 292.152H555.316C545.692 165.632 439.985 65.9697 311 65.9697C175.674 65.9697 65.9697 175.674 65.9697 311C65.9697 446.327 175.674 556.03 311 556.03Z" fill="url(#paint0_linear)"/>
<path d="M311 556.03C337.305 556.03 362.643 551.885 386.394 544.212V612.799C362.255 618.809 337 622 311 622C139.239 622 0 482.761 0 311C0 139.239 139.239 0 311 0C482.761 0 622 139.239 622 311V622H556.03L555.32 292.152H555.316C545.692 165.632 439.985 65.9697 311 65.9697C175.674 65.9697 65.9697 175.674 65.9697 311C65.9697 446.327 175.674 556.03 311 556.03Z" fill="url(#paint1_linear)"/>
<path d="M311 452.364C338.718 452.364 364.573 444.386 386.394 430.602V504.199C363.027 513.325 337.598 518.333 311 518.333C196.493 518.333 103.667 425.507 103.667 311C103.667 196.493 196.493 103.667 311 103.667C425.507 103.667 518.333 196.493 518.333 311V622H452.364V311C452.364 232.927 389.073 169.636 311 169.636C232.927 169.636 169.636 232.927 169.636 311C169.636 389.073 232.927 452.364 311 452.364Z" fill="url(#paint2_linear)"/>
<path d="M311 452.364C338.718 452.364 364.573 444.386 386.394 430.602V504.199C363.027 513.325 337.598 518.333 311 518.333C196.493 518.333 103.667 425.507 103.667 311C103.667 196.493 196.493 103.667 311 103.667C425.507 103.667 518.333 196.493 518.333 311V622H452.364V311C452.364 232.927 389.073 169.636 311 169.636C232.927 169.636 169.636 232.927 169.636 311C169.636 389.073 232.927 452.364 311 452.364Z" fill="url(#paint3_linear)"/>
<defs>
<linearGradient id="paint0_linear" x1="40.1638" y1="622" x2="619.401" y2="-1.36046e-05" gradientUnits="userSpaceOnUse">
<stop stop-color="#FDE568"/>
<stop offset="0.499326" stop-color="#E7BB4A"/>
<stop offset="1" stop-color="#F1C657"/>
</linearGradient>
<linearGradient id="paint1_linear" x1="40.1638" y1="622" x2="619.401" y2="-1.36046e-05" gradientUnits="userSpaceOnUse">
<stop stop-color="#FDE568"/>
<stop offset="0.499326" stop-color="#E7BB4A"/>
<stop offset="1" stop-color="#F1C657"/>
</linearGradient>
<linearGradient id="paint2_linear" x1="40.1638" y1="622" x2="619.401" y2="-1.36046e-05" gradientUnits="userSpaceOnUse">
<stop stop-color="#FDE568"/>
<stop offset="0.499326" stop-color="#E7BB4A"/>
<stop offset="1" stop-color="#F1C657"/>
</linearGradient>
<linearGradient id="paint3_linear" x1="40.1638" y1="622" x2="619.401" y2="-1.36046e-05" gradientUnits="userSpaceOnUse">
<stop stop-color="#FDE568"/>
<stop offset="0.499326" stop-color="#E7BB4A"/>
<stop offset="1" stop-color="#F1C657"/>
</linearGradient>
</defs>
</svg>
